<svg xmlns="http://www.w3.org/2000/svg" width="1280" height="960" viewBox="0 0 1280 960" role="img" aria-labelledby="title desc"><title id="title">Mapa de calor semanal de la inversion estimada por marca</title><desc id="desc">Mapa de calor con la evolucion semanal estimada de la inversion por marca.</desc><rect width="100%" height="100%" fill="#f6f2e9"/><text x="48" y="52" font-family="Helvetica Neue, Arial, sans-serif" font-size="34" font-weight="700" fill="#1f2937">Mapa de calor semanal de la inversion estimada por marca</text><text x="48" y="82" font-family="Helvetica Neue, Arial, sans-serif" font-size="18" fill="#5f6b7a">Columnas por numero de semana. Cifras y leyenda en millones de CLP, sin decimales.</text><rect x="48" y="882" width="1184" height="44" rx="14" fill="#fff4dd" stroke="#f59e0b" stroke-width="1.5"/><text x="70" y="910" font-family="Helvetica Neue, Arial, sans-serif" font-size="16" font-weight="700" fill="#92400e">Prevencion:</text><text x="178" y="910" font-family="Helvetica Neue, Arial, sans-serif" font-size="16" fill="#7c2d12">AJUTER advierte que el juego puede pasar a ocupar prioridad sobre otras actividades y persistir pese a danos.</text><text x="48" y="945" font-family="Helvetica Neue, Arial, sans-serif" font-size="14" fill="#5f6b7a">Fuente: Integrametrics, periodo enero-junio 2026 (corte al 21 de junio de 2026)</text><text x="230.0" y="92" text-anchor="middle" font-family="Helvetica Neue, Arial, sans-serif" font-size="14" fill="#64748b">S01</text><line x1="210.0" y1="110" x2="210.0" y2="790" stroke="#efeadd" stroke-width="1"/><text x="270.0" y="92" text-anchor="middle" font-family="Helvetica Neue, Arial, sans-serif" font-size="14" fill="#64748b">S02</text><line x1="250.0" y1="110" x2="250.0" y2="790" stroke="#efeadd" stroke-width="1"/><text x="310.0" y="92" text-anchor="middle" font-family="Helvetica Neue, Arial, sans-serif" font-size="14" fill="#64748b">S03</text><line x1="290.0" y1="110" x2="290.0" y2="790" stroke="#efeadd" stroke-width="1"/><text x="350.0" y="92" text-anchor="middle" font-family="Helvetica Neue, Arial, sans-serif" font-size="14" fill="#64748b">S04</text><line x1="330.0" y1="110" x2="330.0" y2="790" stroke="#efeadd" stroke-width="1"/><text x="390.0" y="92" text-anchor="middle" font-family="Helvetica Neue, Arial, sans-serif" font-size="14" fill="#64748b">S05</text><line x1="370.0" y1="110" x2="370.0" y2="790" stroke="#efeadd" stroke-width="1"/><text x="430.0" y="92" text-anchor="middle" font-family="Helvetica Neue, Arial, sans-serif" font-size="14" fill="#64748b">S06</text><line x1="410.0" y1="110" x2="410.0" y2="790" stroke="#efeadd" stroke-width="1"/><text x="470.0" y="92" text-anchor="middle" font-family="Helvetica Neue, Arial, sans-serif" font-size="14" fill="#64748b">S07</text><line x1="450.0" y1="110" x2="450.0" y2="790" stroke="#efeadd" stroke-width="1"/><text x="510.0" y="92" text-anchor="middle" font-family="Helvetica Neue, Arial, sans-serif" font-size="14" fill="#64748b">S08</text><line x1="490.0" y1="110" x2="490.0" y2="790" stroke="#efeadd" stroke-width="1"/><text x="550.0" y="92" text-anchor="middle" font-family="Helvetica Neue, Arial, sans-serif" font-size="14" fill="#64748b">S09</text><line x1="530.0" y1="110" x2="530.0" y2="790" stroke="#efeadd" stroke-width="1"/><text x="590.0" y="92" text-anchor="middle" font-family="Helvetica Neue, Arial, sans-serif" font-size="14" fill="#64748b">S10</text><line x1="570.0" y1="110" x2="570.0" y2="790" stroke="#efeadd" stroke-width="1"/><text x="630.0" y="92" text-anchor="middle" font-family="Helvetica Neue, Arial, sans-serif" font-size="14" fill="#64748b">S11</text><line x1="610.0" y1="110" x2="610.0" y2="790" stroke="#efeadd" stroke-width="1"/><text x="670.0" y="92" text-anchor="middle" font-family="Helvetica Neue, Arial, sans-serif" font-size="14" fill="#64748b">S12</text><line x1="650.0" y1="110" x2="650.0" y2="790" stroke="#efeadd" stroke-width="1"/><text x="710.0" y="92" text-anchor="middle" font-family="Helvetica Neue, Arial, sans-serif" font-size="14" fill="#64748b">S13</text><line x1="690.0" y1="110" x2="690.0" y2="790" stroke="#efeadd" stroke-width="1"/><text x="750.0" y="92" text-anchor="middle" font-family="Helvetica Neue, Arial, sans-serif" font-size="14" fill="#64748b">S14</text><line x1="730.0" y1="110" x2="730.0" y2="790" stroke="#efeadd" stroke-width="1"/><text x="790.0" y="92" text-anchor="middle" font-family="Helvetica Neue, Arial, sans-serif" font-size="14" fill="#64748b">S15</text><line x1="770.0" y1="110" x2="770.0" y2="790" stroke="#efeadd" stroke-width="1"/><text x="830.0" y="92" text-anchor="middle" font-family="Helvetica Neue, Arial, sans-serif" font-size="14" fill="#64748b">S16</text><line x1="810.0" y1="110" x2="810.0" y2="790" stroke="#efeadd" stroke-width="1"/><text x="870.0" y="92" text-anchor="middle" font-family="Helvetica Neue, Arial, sans-serif" font-size="14" fill="#64748b">S17</text><line x1="850.0" y1="110" x2="850.0" y2="790" stroke="#efeadd" stroke-width="1"/><text x="910.0" y="92" text-anchor="middle" font-family="Helvetica Neue, Arial, sans-serif" font-size="14" fill="#64748b">S18</text><line x1="890.0" y1="110" x2="890.0" y2="790" stroke="#efeadd" stroke-width="1"/><text x="950.0" y="92" text-anchor="middle" font-family="Helvetica Neue, Arial, sans-serif" font-size="14" fill="#64748b">S19</text><line x1="930.0" y1="110" x2="930.0" y2="790" stroke="#efeadd" stroke-width="1"/><text x="990.0" y="92" text-anchor="middle" font-family="Helvetica Neue, Arial, sans-serif" font-size="14" fill="#64748b">S20</text><line x1="970.0" y1="110" x2="970.0" y2="790" stroke="#efeadd" stroke-width="1"/><text x="1030.0" y="92" text-anchor="middle" font-family="Helvetica Neue, Arial, sans-serif" font-size="14" fill="#64748b">S21</text><line x1="1010.0" y1="110" x2="1010.0" y2="790" stroke="#efeadd" stroke-width="1"/><text x="1070.0" y="92" text-anchor="middle" font-family="Helvetica Neue, Arial, sans-serif" font-size="14" fill="#64748b">S22</text><line x1="1050.0" y1="110" x2="1050.0" y2="790" stroke="#efeadd" stroke-width="1"/><text x="1110.0" y="92" text-anchor="middle" font-family="Helvetica Neue, Arial, sans-serif" font-size="14" fill="#64748b">S23</text><line x1="1090.0" y1="110" x2="1090.0" y2="790" stroke="#efeadd" stroke-width="1"/><text x="1150.0" y="92" text-anchor="middle" font-family="Helvetica Neue, Arial, sans-serif" font-size="14" fill="#64748b">S24</text><line x1="1130.0" y1="110" x2="1130.0" y2="790" stroke="#efeadd" stroke-width="1"/><text x="1190.0" y="92" text-anchor="middle" font-family="Helvetica Neue, Arial, sans-serif" font-size="14" fill="#64748b">S25</text><line x1="1170.0" y1="110" x2="1170.0" y2="790" stroke="#efeadd" stroke-width="1"/><text x="196" y="149.0" text-anchor="end" font-family="Helvetica Neue, Arial, sans-serif" font-size="16" fill="#1f2937">BETANO</text><rect x="212.0" y="112.0" width="36.0" height="64.0" rx="6" fill="#cfa7ad"/><text x="230.0" y="148.0" text-anchor="middle" font-family="Helvetica Neue, Arial, sans-serif" font-size="9" fill="#1f2937">18</text><rect x="252.0" y="112.0" width="36.0" height="64.0" rx="6" fill="#ab5e72"/><text x="270.0" y="148.0" text-anchor="middle" font-family="Helvetica Neue, Arial, sans-serif" font-size="9" fill="#ffffff">65</text><rect x="292.0" y="112.0" width="36.0" height="64.0" rx="6" fill="#b0697b"/><text x="310.0" y="148.0" text-anchor="middle" font-family="Helvetica Neue, Arial, sans-serif" font-size="9" fill="#ffffff">57</text><rect x="332.0" y="112.0" width="36.0" height="64.0" rx="6" fill="#a8586d"/><text x="350.0" y="148.0" text-anchor="middle" font-family="Helvetica Neue, Arial, sans-serif" font-size="9" fill="#ffffff">70</text><rect x="372.0" y="112.0" width="36.0" height="64.0" rx="6" fill="#a7576d"/><text x="390.0" y="148.0" text-anchor="middle" font-family="Helvetica Neue, Arial, sans-serif" font-size="9" fill="#ffffff">71</text><rect x="412.0" y="112.0" width="36.0" height="64.0" rx="6" fill="#9a3c57"/><text x="430.0" y="148.0" text-anchor="middle" font-family="Helvetica Neue, Arial, sans-serif" font-size="9" fill="#ffffff">95</text><rect x="452.0" y="112.0" width="36.0" height="64.0" rx="6" fill="#b36f80"/><text x="470.0" y="148.0" text-anchor="middle" font-family="Helvetica Neue, Arial, sans-serif" font-size="9" fill="#1f2937">52</text><rect x="492.0" y="112.0" width="36.0" height="64.0" rx="6" fill="#a24c64"/><text x="510.0" y="148.0" text-anchor="middle" font-family="Helvetica Neue, Arial, sans-serif" font-size="9" fill="#ffffff">81</text><rect x="532.0" y="112.0" width="36.0" height="64.0" rx="6" fill="#b0687a"/><text x="550.0" y="148.0" text-anchor="middle" font-family="Helvetica Neue, Arial, sans-serif" font-size="9" fill="#ffffff">58</text><rect x="572.0" y="112.0" width="36.0" height="64.0" rx="6" fill="#9d435c"/><text x="590.0" y="148.0" text-anchor="middle" font-family="Helvetica Neue, Arial, sans-serif" font-size="9" fill="#ffffff">89</text><rect x="612.0" y="112.0" width="36.0" height="64.0" rx="6" fill="#a6546a"/><text x="630.0" y="148.0" text-anchor="middle" font-family="Helvetica Neue, Arial, sans-serif" font-size="9" fill="#ffffff">73</text><rect x="652.0" y="112.0" width="36.0" height="64.0" rx="6" fill="#983854"/><text x="670.0" y="148.0" text-anchor="middle" font-family="Helvetica Neue, Arial, sans-serif" font-size="9" fill="#ffffff">100</text><rect x="692.0" y="112.0" width="36.0" height="64.0" rx="6" fill="#9f455e"/><text x="710.0" y="148.0" text-anchor="middle" font-family="Helvetica Neue, Arial, sans-serif" font-size="9" fill="#ffffff">87</text><rect x="732.0" y="112.0" width="36.0" height="64.0" rx="6" fill="#9d425c"/><text x="750.0" y="148.0" text-anchor="middle" font-family="Helvetica Neue, Arial, sans-serif" font-size="9" fill="#ffffff">90</text><rect x="772.0" y="112.0" width="36.0" height="64.0" rx="6" fill="#a6556b"/><text x="790.0" y="148.0" text-anchor="middle" font-family="Helvetica Neue, Arial, sans-serif" font-size="9" fill="#ffffff">73</text><rect x="812.0" y="112.0" width="36.0" height="64.0" rx="6" fill="#af6679"/><text x="830.0" y="148.0" text-anchor="middle" font-family="Helvetica Neue, Arial, sans-serif" font-size="9" fill="#ffffff">59</text><rect x="852.0" y="112.0" width="36.0" height="64.0" rx="6" fill="#ad6276"/><text x="870.0" y="148.0" text-anchor="middle" font-family="Helvetica Neue, Arial, sans-serif" font-size="9" fill="#ffffff">62</text><rect x="892.0" y="112.0" width="36.0" height="64.0" rx="6" fill="#a7566c"/><text x="910.0" y="148.0" text-anchor="middle" font-family="Helvetica Neue, Arial, sans-serif" font-size="9" fill="#ffffff">72</text><rect x="932.0" y="112.0" width="36.0" height="64.0" rx="6" fill="#a8596e"/><text x="950.0" y="148.0" text-anchor="middle" font-family="Helvetica Neue, Arial, sans-serif" font-size="9" fill="#ffffff">70</text><rect x="972.0" y="112.0" width="36.0" height="64.0" rx="6" fill="#ac6175"/><text x="990.0" y="148.0" text-anchor="middle" font-family="Helvetica Neue, Arial, sans-serif" font-size="9" fill="#ffffff">63</text><rect x="1012.0" y="112.0" width="36.0" height="64.0" rx="6" fill="#a7566c"/><text x="1030.0" y="148.0" text-anchor="middle" font-family="Helvetica Neue, Arial, sans-serif" font-size="9" fill="#ffffff">72</text><rect x="1052.0" y="112.0" width="36.0" height="64.0" rx="6" fill="#94304d"/><text x="1070.0" y="148.0" text-anchor="middle" font-family="Helvetica Neue, Arial, sans-serif" font-size="9" fill="#ffffff">108</text><rect x="1092.0" y="112.0" width="36.0" height="64.0" rx="6" fill="#a8596e"/><text x="1110.0" y="148.0" text-anchor="middle" font-family="Helvetica Neue, Arial, sans-serif" font-size="9" fill="#ffffff">70</text><rect x="1132.0" y="112.0" width="36.0" height="64.0" rx="6" fill="#9d435c"/><text x="1150.0" y="148.0" text-anchor="middle" font-family="Helvetica Neue, Arial, sans-serif" font-size="9" fill="#ffffff">89</text><rect x="1172.0" y="112.0" width="36.0" height="64.0" rx="6" fill="#8b1e3f"/><text x="1190.0" y="148.0" text-anchor="middle" font-family="Helvetica Neue, Arial, sans-serif" font-size="9" fill="#ffffff">126</text><text x="196" y="217.0" text-anchor="end" font-family="Helvetica Neue, Arial, sans-serif" font-size="16" fill="#1f2937">JUGABET</text><rect x="212.0" y="180.0" width="36.0" height="64.0" rx="6" fill="#dec4c4"/><text x="230.0" y="216.0" text-anchor="middle" font-family="Helvetica Neue, Arial, sans-serif" font-size="9" fill="#1f2937">7</text><rect x="252.0" y="180.0" width="36.0" height="64.0" rx="6" fill="#dbc0c0"/><text x="270.0" y="216.0" text-anchor="middle" font-family="Helvetica Neue, Arial, sans-serif" font-size="9" fill="#1f2937">9</text><rect x="292.0" y="180.0" width="36.0" height="64.0" rx="6" fill="#c6959e"/><text x="310.0" y="216.0" text-anchor="middle" font-family="Helvetica Neue, Arial, sans-serif" font-size="9" fill="#1f2937">28</text><rect x="332.0" y="180.0" width="36.0" height="64.0" rx="6" fill="#a95a6f"/><text x="350.0" y="216.0" text-anchor="middle" font-family="Helvetica Neue, Arial, sans-serif" font-size="9" fill="#ffffff">68</text><rect x="372.0" y="180.0" width="36.0" height="64.0" rx="6" fill="#be8592"/><text x="390.0" y="216.0" text-anchor="middle" font-family="Helvetica Neue, Arial, sans-serif" font-size="9" fill="#1f2937">37</text><rect x="412.0" y="180.0" width="36.0" height="64.0" rx="6" fill="#b16b7d"/><text x="430.0" y="216.0" text-anchor="middle" font-family="Helvetica Neue, Arial, sans-serif" font-size="9" fill="#1f2937">55</text><rect x="452.0" y="180.0" width="36.0" height="64.0" rx="6" fill="#d7b7ba"/><text x="470.0" y="216.0" text-anchor="middle" font-family="Helvetica Neue, Arial, sans-serif" font-size="9" fill="#1f2937">11</text><rect x="492.0" y="180.0" width="36.0" height="64.0" rx="6" fill="#a95a6f"/><text x="510.0" y="216.0" text-anchor="middle" font-family="Helvetica Neue, Arial, sans-serif" font-size="9" fill="#ffffff">69</text><rect x="532.0" y="180.0" width="36.0" height="64.0" rx="6" fill="#cb9fa6"/><text x="550.0" y="216.0" text-anchor="middle" font-family="Helvetica Neue, Arial, sans-serif" font-size="9" fill="#1f2937">22</text><rect x="572.0" y="180.0" width="36.0" height="64.0" rx="6" fill="#d7b6b9"/><text x="590.0" y="216.0" text-anchor="middle" font-family="Helvetica Neue, Arial, sans-serif" font-size="9" fill="#1f2937">12</text><rect x="612.0" y="180.0" width="36.0" height="64.0" rx="6" fill="#dbbfc0"/><text x="630.0" y="216.0" text-anchor="middle" font-family="Helvetica Neue, Arial, sans-serif" font-size="9" fill="#1f2937">9</text><rect x="652.0" y="180.0" width="36.0" height="64.0" rx="6" fill="#d7b7ba"/><text x="670.0" y="216.0" text-anchor="middle" font-family="Helvetica Neue, Arial, sans-serif" font-size="9" fill="#1f2937">12</text><rect x="692.0" y="180.0" width="36.0" height="64.0" rx="6" fill="#dcc1c2"/><text x="710.0" y="216.0" text-anchor="middle" font-family="Helvetica Neue, Arial, sans-serif" font-size="9" fill="#1f2937">8</text><rect x="732.0" y="180.0" width="36.0" height="64.0" rx="6" fill="#d7b6b9"/><text x="750.0" y="216.0" text-anchor="middle" font-family="Helvetica Neue, Arial, sans-serif" font-size="9" fill="#1f2937">12</text><rect x="772.0" y="180.0" width="36.0" height="64.0" rx="6" fill="#dcc0c1"/><text x="790.0" y="216.0" text-anchor="middle" font-family="Helvetica Neue, Arial, sans-serif" font-size="9" fill="#1f2937">8</text><rect x="812.0" y="180.0" width="36.0" height="64.0" rx="6" fill="#dabebf"/><text x="830.0" y="216.0" text-anchor="middle" font-family="Helvetica Neue, Arial, sans-serif" font-size="9" fill="#1f2937">9</text><rect x="852.0" y="180.0" width="36.0" height="64.0" rx="6" fill="#dabcbd"/><text x="870.0" y="216.0" text-anchor="middle" font-family="Helvetica Neue, Arial, sans-serif" font-size="9" fill="#1f2937">10</text><rect x="892.0" y="180.0" width="36.0" height="64.0" rx="6" fill="#d9babc"/><text x="910.0" y="216.0" text-anchor="middle" font-family="Helvetica Neue, Arial, sans-serif" font-size="9" fill="#1f2937">11</text><rect x="932.0" y="180.0" width="36.0" height="64.0" rx="6" fill="#c797a0"/><text x="950.0" y="216.0" text-anchor="middle" font-family="Helvetica Neue, Arial, sans-serif" font-size="9" fill="#1f2937">27</text><rect x="972.0" y="180.0" width="36.0" height="64.0" rx="6" fill="#c796a0"/><text x="990.0" y="216.0" text-anchor="middle" font-family="Helvetica Neue, Arial, sans-serif" font-size="9" fill="#1f2937">27</text><rect x="1012.0" y="180.0" width="36.0" height="64.0" rx="6" fill="#c5929c"/><text x="1030.0" y="216.0" text-anchor="middle" font-family="Helvetica Neue, Arial, sans-serif" font-size="9" fill="#1f2937">29</text><rect x="1052.0" y="180.0" width="36.0" height="64.0" rx="6" fill="#c797a0"/><text x="1070.0" y="216.0" text-anchor="middle" font-family="Helvetica Neue, Arial, sans-serif" font-size="9" fill="#1f2937">27</text><rect x="1092.0" y="180.0" width="36.0" height="64.0" rx="6" fill="#c6959e"/><text x="1110.0" y="216.0" text-anchor="middle" font-family="Helvetica Neue, Arial, sans-serif" font-size="9" fill="#1f2937">28</text><rect x="1132.0" y="180.0" width="36.0" height="64.0" rx="6" fill="#c38e99"/><text x="1150.0" y="216.0" text-anchor="middle" font-family="Helvetica Neue, Arial, sans-serif" font-size="9" fill="#1f2937">32</text><rect x="1172.0" y="180.0" width="36.0" height="64.0" rx="6" fill="#b47182"/><text x="1190.0" y="216.0" text-anchor="middle" font-family="Helvetica Neue, Arial, sans-serif" font-size="9" fill="#1f2937">51</text><text x="196" y="285.0" text-anchor="end" font-family="Helvetica Neue, Arial, sans-serif" font-size="16" fill="#1f2937">COOLBET</text><rect x="212.0" y="248.0" width="36.0" height="64.0" rx="6" fill="#e3cfcd"/><text x="230.0" y="284.0" text-anchor="middle" font-family="Helvetica Neue, Arial, sans-serif" font-size="9" fill="#1f2937">4</text><rect x="252.0" y="248.0" width="36.0" height="64.0" rx="6" fill="#dcc1c1"/><text x="270.0" y="284.0" text-anchor="middle" font-family="Helvetica Neue, Arial, sans-serif" font-size="9" fill="#1f2937">8</text><rect x="292.0" y="248.0" width="36.0" height="64.0" rx="6" fill="#d8b9bb"/><text x="310.0" y="284.0" text-anchor="middle" font-family="Helvetica Neue, Arial, sans-serif" font-size="9" fill="#1f2937">11</text><rect x="332.0" y="248.0" width="36.0" height="64.0" rx="6" fill="#d7b7ba"/><text x="350.0" y="284.0" text-anchor="middle" font-family="Helvetica Neue, Arial, sans-serif" font-size="9" fill="#1f2937">12</text><rect x="372.0" y="248.0" width="36.0" height="64.0" rx="6" fill="#dcc0c1"/><text x="390.0" y="284.0" text-anchor="middle" font-family="Helvetica Neue, Arial, sans-serif" font-size="9" fill="#1f2937">8</text><rect x="412.0" y="248.0" width="36.0" height="64.0" rx="6" fill="#d8babc"/><text x="430.0" y="284.0" text-anchor="middle" font-family="Helvetica Neue, Arial, sans-serif" font-size="9" fill="#1f2937">11</text><rect x="452.0" y="248.0" width="36.0" height="64.0" rx="6" fill="#dcc0c1"/><text x="470.0" y="284.0" text-anchor="middle" font-family="Helvetica Neue, Arial, sans-serif" font-size="9" fill="#1f2937">8</text><rect x="492.0" y="248.0" width="36.0" height="64.0" rx="6" fill="#ddc3c3"/><text x="510.0" y="284.0" text-anchor="middle" font-family="Helvetica Neue, Arial, sans-serif" font-size="9" fill="#1f2937">7</text><rect x="532.0" y="248.0" width="36.0" height="64.0" rx="6" fill="#c5929c"/><text x="550.0" y="284.0" text-anchor="middle" font-family="Helvetica Neue, Arial, sans-serif" font-size="9" fill="#1f2937">29</text><rect x="572.0" y="248.0" width="36.0" height="64.0" rx="6" fill="#cda3a9"/><text x="590.0" y="284.0" text-anchor="middle" font-family="Helvetica Neue, Arial, sans-serif" font-size="9" fill="#1f2937">20</text><rect x="612.0" y="248.0" width="36.0" height="64.0" rx="6" fill="#cda3aa"/><text x="630.0" y="284.0" text-anchor="middle" font-family="Helvetica Neue, Arial, sans-serif" font-size="9" fill="#1f2937">20</text><rect x="652.0" y="248.0" width="36.0" height="64.0" rx="6" fill="#c797a0"/><text x="670.0" y="284.0" text-anchor="middle" font-family="Helvetica Neue, Arial, sans-serif" font-size="9" fill="#1f2937">26</text><rect x="692.0" y="248.0" width="36.0" height="64.0" rx="6" fill="#bd828f"/><text x="710.0" y="284.0" text-anchor="middle" font-family="Helvetica Neue, Arial, sans-serif" font-size="9" fill="#1f2937">39</text><rect x="732.0" y="248.0" width="36.0" height="64.0" rx="6" fill="#b87887"/><text x="750.0" y="284.0" text-anchor="middle" font-family="Helvetica Neue, Arial, sans-serif" font-size="9" fill="#1f2937">45</text><rect x="772.0" y="248.0" width="36.0" height="64.0" rx="6" fill="#c38f99"/><text x="790.0" y="284.0" text-anchor="middle" font-family="Helvetica Neue, Arial, sans-serif" font-size="9" fill="#1f2937">31</text><rect x="812.0" y="248.0" width="36.0" height="64.0" rx="6" fill="#d2aeb2"/><text x="830.0" y="284.0" text-anchor="middle" font-family="Helvetica Neue, Arial, sans-serif" font-size="9" fill="#1f2937">15</text><rect x="852.0" y="248.0" width="36.0" height="64.0" rx="6" fill="#dabebf"/><text x="870.0" y="284.0" text-anchor="middle" font-family="Helvetica Neue, Arial, sans-serif" font-size="9" fill="#1f2937">9</text><rect x="892.0" y="248.0" width="36.0" height="64.0" rx="6" fill="#cb9fa7"/><text x="910.0" y="284.0" text-anchor="middle" font-family="Helvetica Neue, Arial, sans-serif" font-size="9" fill="#1f2937">22</text><rect x="932.0" y="248.0" width="36.0" height="64.0" rx="6" fill="#bf8793"/><text x="950.0" y="284.0" text-anchor="middle" font-family="Helvetica Neue, Arial, sans-serif" font-size="9" fill="#1f2937">36</text><rect x="972.0" y="248.0" width="36.0" height="64.0" rx="6" fill="#c38f9a"/><text x="990.0" y="284.0" text-anchor="middle" font-family="Helvetica Neue, Arial, sans-serif" font-size="9" fill="#1f2937">31</text><rect x="1012.0" y="248.0" width="36.0" height="64.0" rx="6" fill="#c4909b"/><text x="1030.0" y="284.0" text-anchor="middle" font-family="Helvetica Neue, Arial, sans-serif" font-size="9" fill="#1f2937">30</text><rect x="1052.0" y="248.0" width="36.0" height="64.0" rx="6" fill="#b97a89"/><text x="1070.0" y="284.0" text-anchor="middle" font-family="Helvetica Neue, Arial, sans-serif" font-size="9" fill="#1f2937">44</text><rect x="1092.0" y="248.0" width="36.0" height="64.0" rx="6" fill="#bf8793"/><text x="1110.0" y="284.0" text-anchor="middle" font-family="Helvetica Neue, Arial, sans-serif" font-size="9" fill="#1f2937">36</text><rect x="1132.0" y="248.0" width="36.0" height="64.0" rx="6" fill="#ba7c8a"/><text x="1150.0" y="284.0" text-anchor="middle" font-family="Helvetica Neue, Arial, sans-serif" font-size="9" fill="#1f2937">43</text><rect x="1172.0" y="248.0" width="36.0" height="64.0" rx="6" fill="#b0697b"/><text x="1190.0" y="284.0" text-anchor="middle" font-family="Helvetica Neue, Arial, sans-serif" font-size="9" fill="#ffffff">57</text><text x="196" y="353.0" text-anchor="end" font-family="Helvetica Neue, Arial, sans-serif" font-size="16" fill="#1f2937">EPICBET</text><rect x="212.0" y="316.0" width="36.0" height="64.0" rx="6" fill="#f4f1e8"/><rect x="252.0" y="316.0" width="36.0" height="64.0" rx="6" fill="#b87787"/><text x="270.0" y="352.0" text-anchor="middle" font-family="Helvetica Neue, Arial, sans-serif" font-size="9" fill="#1f2937">46</text><rect x="292.0" y="316.0" width="36.0" height="64.0" rx="6" fill="#b26c7e"/><text x="310.0" y="352.0" text-anchor="middle" font-family="Helvetica Neue, Arial, sans-serif" font-size="9" fill="#1f2937">54</text><rect x="332.0" y="316.0" width="36.0" height="64.0" rx="6" fill="#b87887"/><text x="350.0" y="352.0" text-anchor="middle" font-family="Helvetica Neue, Arial, sans-serif" font-size="9" fill="#1f2937">46</text><rect x="372.0" y="316.0" width="36.0" height="64.0" rx="6" fill="#c38e99"/><text x="390.0" y="352.0" text-anchor="middle" font-family="Helvetica Neue, Arial, sans-serif" font-size="9" fill="#1f2937">32</text><rect x="412.0" y="316.0" width="36.0" height="64.0" rx="6" fill="#912a49"/><text x="430.0" y="352.0" text-anchor="middle" font-family="Helvetica Neue, Arial, sans-serif" font-size="9" fill="#ffffff">113</text><rect x="452.0" y="316.0" width="36.0" height="64.0" rx="6" fill="#cca1a8"/><text x="470.0" y="352.0" text-anchor="middle" font-family="Helvetica Neue, Arial, sans-serif" font-size="9" fill="#1f2937">22</text><rect x="492.0" y="316.0" width="36.0" height="64.0" rx="6" fill="#b97b8a"/><text x="510.0" y="352.0" text-anchor="middle" font-family="Helvetica Neue, Arial, sans-serif" font-size="9" fill="#1f2937">43</text><rect x="532.0" y="316.0" width="36.0" height="64.0" rx="6" fill="#d2acb1"/><text x="550.0" y="352.0" text-anchor="middle" font-family="Helvetica Neue, Arial, sans-serif" font-size="9" fill="#1f2937">16</text><rect x="572.0" y="316.0" width="36.0" height="64.0" rx="6" fill="#d9babc"/><text x="590.0" y="352.0" text-anchor="middle" font-family="Helvetica Neue, Arial, sans-serif" font-size="9" fill="#1f2937">10</text><rect x="612.0" y="316.0" width="36.0" height="64.0" rx="6" fill="#dabdbe"/><text x="630.0" y="352.0" text-anchor="middle" font-family="Helvetica Neue, Arial, sans-serif" font-size="9" fill="#1f2937">9</text><rect x="652.0" y="316.0" width="36.0" height="64.0" rx="6" fill="#e7d7d3"/><text x="670.0" y="352.0" text-anchor="middle" font-family="Helvetica Neue, Arial, sans-serif" font-size="9" fill="#1f2937">2</text><rect x="692.0" y="316.0" width="36.0" height="64.0" rx="6" fill="#dec5c5"/><text x="710.0" y="352.0" text-anchor="middle" font-family="Helvetica Neue, Arial, sans-serif" font-size="9" fill="#1f2937">7</text><rect x="732.0" y="316.0" width="36.0" height="64.0" rx="6" fill="#ede3dd"/><rect x="772.0" y="316.0" width="36.0" height="64.0" rx="6" fill="#ede3dd"/><rect x="812.0" y="316.0" width="36.0" height="64.0" rx="6" fill="#ede3dd"/><rect x="852.0" y="316.0" width="36.0" height="64.0" rx="6" fill="#ede3dd"/><rect x="892.0" y="316.0" width="36.0" height="64.0" rx="6" fill="#efe6df"/><rect x="932.0" y="316.0" width="36.0" height="64.0" rx="6" fill="#f3efe6"/><rect x="972.0" y="316.0" width="36.0" height="64.0" rx="6" fill="#f4f1e8"/><rect x="1012.0" y="316.0" width="36.0" height="64.0" rx="6" fill="#f3f0e7"/><rect x="1052.0" y="316.0" width="36.0" height="64.0" rx="6" fill="#f4f1e8"/><rect x="1092.0" y="316.0" width="36.0" height="64.0" rx="6" fill="#f3efe6"/><rect x="1132.0" y="316.0" width="36.0" height="64.0" rx="6" fill="#f4f1e8"/><rect x="1172.0" y="316.0" width="36.0" height="64.0" rx="6" fill="#eaddd8"/><text x="1190.0" y="352.0" text-anchor="middle" font-family="Helvetica Neue, Arial, sans-serif" font-size="9" fill="#1f2937">1</text><text x="196" y="421.0" text-anchor="end" font-family="Helvetica Neue, Arial, sans-serif" font-size="16" fill="#1f2937">LATAMWIN</text><rect x="212.0" y="384.0" width="36.0" height="64.0" rx="6" fill="#f2eee5"/><rect x="252.0" y="384.0" width="36.0" height="64.0" rx="6" fill="#efe6df"/><rect x="292.0" y="384.0" width="36.0" height="64.0" rx="6" fill="#dec5c5"/><text x="310.0" y="420.0" text-anchor="middle" font-family="Helvetica Neue, Arial, sans-serif" font-size="9" fill="#1f2937">7</text><rect x="332.0" y="384.0" width="36.0" height="64.0" rx="6" fill="#dec5c5"/><text x="350.0" y="420.0" text-anchor="middle" font-family="Helvetica Neue, Arial, sans-serif" font-size="9" fill="#1f2937">7</text><rect x="372.0" y="384.0" width="36.0" height="64.0" rx="6" fill="#d2acb1"/><text x="390.0" y="420.0" text-anchor="middle" font-family="Helvetica Neue, Arial, sans-serif" font-size="9" fill="#1f2937">16</text><rect x="412.0" y="384.0" width="36.0" height="64.0" rx="6" fill="#dec5c5"/><text x="430.0" y="420.0" text-anchor="middle" font-family="Helvetica Neue, Arial, sans-serif" font-size="9" fill="#1f2937">7</text><rect x="452.0" y="384.0" width="36.0" height="64.0" rx="6" fill="#dec5c5"/><text x="470.0" y="420.0" text-anchor="middle" font-family="Helvetica Neue, Arial, sans-serif" font-size="9" fill="#1f2937">7</text><rect x="492.0" y="384.0" width="36.0" height="64.0" rx="6" fill="#dfc7c7"/><text x="510.0" y="420.0" text-anchor="middle" font-family="Helvetica Neue, Arial, sans-serif" font-size="9" fill="#1f2937">6</text><rect x="532.0" y="384.0" width="36.0" height="64.0" rx="6" fill="#e6d5d1"/><text x="550.0" y="420.0" text-anchor="middle" font-family="Helvetica Neue, Arial, sans-serif" font-size="9" fill="#1f2937">3</text><rect x="572.0" y="384.0" width="36.0" height="64.0" rx="6" fill="#d4b0b4"/><text x="590.0" y="420.0" text-anchor="middle" font-family="Helvetica Neue, Arial, sans-serif" font-size="9" fill="#1f2937">14</text><rect x="612.0" y="384.0" width="36.0" height="64.0" rx="6" fill="#e3cfcd"/><text x="630.0" y="420.0" text-anchor="middle" font-family="Helvetica Neue, Arial, sans-serif" font-size="9" fill="#1f2937">4</text><rect x="652.0" y="384.0" width="36.0" height="64.0" rx="6" fill="#d7b6b9"/><text x="670.0" y="420.0" text-anchor="middle" font-family="Helvetica Neue, Arial, sans-serif" font-size="9" fill="#1f2937">12</text><rect x="692.0" y="384.0" width="36.0" height="64.0" rx="6" fill="#dfc6c6"/><text x="710.0" y="420.0" text-anchor="middle" font-family="Helvetica Neue, Arial, sans-serif" font-size="9" fill="#1f2937">7</text><rect x="732.0" y="384.0" width="36.0" height="64.0" rx="6" fill="#d7b6b9"/><text x="750.0" y="420.0" text-anchor="middle" font-family="Helvetica Neue, Arial, sans-serif" font-size="9" fill="#1f2937">12</text><rect x="772.0" y="384.0" width="36.0" height="64.0" rx="6" fill="#e4d0cd"/><text x="790.0" y="420.0" text-anchor="middle" font-family="Helvetica Neue, Arial, sans-serif" font-size="9" fill="#1f2937">4</text><rect x="812.0" y="384.0" width="36.0" height="64.0" rx="6" fill="#e3cecc"/><text x="830.0" y="420.0" text-anchor="middle" font-family="Helvetica Neue, Arial, sans-serif" font-size="9" fill="#1f2937">4</text><rect x="852.0" y="384.0" width="36.0" height="64.0" rx="6" fill="#e2cccb"/><text x="870.0" y="420.0" text-anchor="middle" font-family="Helvetica Neue, Arial, sans-serif" font-size="9" fill="#1f2937">5</text><rect x="892.0" y="384.0" width="36.0" height="64.0" rx="6" fill="#dec4c4"/><text x="910.0" y="420.0" text-anchor="middle" font-family="Helvetica Neue, Arial, sans-serif" font-size="9" fill="#1f2937">7</text><rect x="932.0" y="384.0" width="36.0" height="64.0" rx="6" fill="#e0cac8"/><text x="950.0" y="420.0" text-anchor="middle" font-family="Helvetica Neue, Arial, sans-serif" font-size="9" fill="#1f2937">6</text><rect x="972.0" y="384.0" width="36.0" height="64.0" rx="6" fill="#e0c9c8"/><text x="990.0" y="420.0" text-anchor="middle" font-family="Helvetica Neue, Arial, sans-serif" font-size="9" fill="#1f2937">6</text><rect x="1012.0" y="384.0" width="36.0" height="64.0" rx="6" fill="#e0cac8"/><text x="1030.0" y="420.0" text-anchor="middle" font-family="Helvetica Neue, Arial, sans-serif" font-size="9" fill="#1f2937">6</text><rect x="1052.0" y="384.0" width="36.0" height="64.0" rx="6" fill="#dec5c5"/><text x="1070.0" y="420.0" text-anchor="middle" font-family="Helvetica Neue, Arial, sans-serif" font-size="9" fill="#1f2937">7</text><rect x="1092.0" y="384.0" width="36.0" height="64.0" rx="6" fill="#dec4c4"/><text x="1110.0" y="420.0" text-anchor="middle" font-family="Helvetica Neue, Arial, sans-serif" font-size="9" fill="#1f2937">7</text><rect x="1132.0" y="384.0" width="36.0" height="64.0" rx="6" fill="#ddc3c3"/><text x="1150.0" y="420.0" text-anchor="middle" font-family="Helvetica Neue, Arial, sans-serif" font-size="9" fill="#1f2937">7</text><rect x="1172.0" y="384.0" width="36.0" height="64.0" rx="6" fill="#dfc7c7"/><text x="1190.0" y="420.0" text-anchor="middle" font-family="Helvetica Neue, Arial, sans-serif" font-size="9" fill="#1f2937">6</text><text x="196" y="489.0" text-anchor="end" font-family="Helvetica Neue, Arial, sans-serif" font-size="16" fill="#1f2937">ROJABET</text><rect x="212.0" y="452.0" width="36.0" height="64.0" rx="6" fill="#efe6e0"/><rect x="252.0" y="452.0" width="36.0" height="64.0" rx="6" fill="#eee5de"/><rect x="292.0" y="452.0" width="36.0" height="64.0" rx="6" fill="#e9dbd6"/><text x="310.0" y="488.0" text-anchor="middle" font-family="Helvetica Neue, Arial, sans-serif" font-size="9" fill="#1f2937">2</text><rect x="332.0" y="452.0" width="36.0" height="64.0" rx="6" fill="#e8d8d4"/><text x="350.0" y="488.0" text-anchor="middle" font-family="Helvetica Neue, Arial, sans-serif" font-size="9" fill="#1f2937">2</text><rect x="372.0" y="452.0" width="36.0" height="64.0" rx="6" fill="#e8d9d5"/><text x="390.0" y="488.0" text-anchor="middle" font-family="Helvetica Neue, Arial, sans-serif" font-size="9" fill="#1f2937">2</text><rect x="412.0" y="452.0" width="36.0" height="64.0" rx="6" fill="#e9dcd7"/><text x="430.0" y="488.0" text-anchor="middle" font-family="Helvetica Neue, Arial, sans-serif" font-size="9" fill="#1f2937">1</text><rect x="452.0" y="452.0" width="36.0" height="64.0" rx="6" fill="#e9dbd6"/><text x="470.0" y="488.0" text-anchor="middle" font-family="Helvetica Neue, Arial, sans-serif" font-size="9" fill="#1f2937">2</text><rect x="492.0" y="452.0" width="36.0" height="64.0" rx="6" fill="#eaddd8"/><text x="510.0" y="488.0" text-anchor="middle" font-family="Helvetica Neue, Arial, sans-serif" font-size="9" fill="#1f2937">1</text><rect x="532.0" y="452.0" width="36.0" height="64.0" rx="6" fill="#e9dad6"/><text x="550.0" y="488.0" text-anchor="middle" font-family="Helvetica Neue, Arial, sans-serif" font-size="9" fill="#1f2937">2</text><rect x="572.0" y="452.0" width="36.0" height="64.0" rx="6" fill="#e4d1ce"/><text x="590.0" y="488.0" text-anchor="middle" font-family="Helvetica Neue, Arial, sans-serif" font-size="9" fill="#1f2937">4</text><rect x="612.0" y="452.0" width="36.0" height="64.0" rx="6" fill="#e2cdcb"/><text x="630.0" y="488.0" text-anchor="middle" font-family="Helvetica Neue, Arial, sans-serif" font-size="9" fill="#1f2937">5</text><rect x="652.0" y="452.0" width="36.0" height="64.0" rx="6" fill="#e4d0ce"/><text x="670.0" y="488.0" text-anchor="middle" font-family="Helvetica Neue, Arial, sans-serif" font-size="9" fill="#1f2937">4</text><rect x="692.0" y="452.0" width="36.0" height="64.0" rx="6" fill="#e4d1ce"/><text x="710.0" y="488.0" text-anchor="middle" font-family="Helvetica Neue, Arial, sans-serif" font-size="9" fill="#1f2937">4</text><rect x="732.0" y="452.0" width="36.0" height="64.0" rx="6" fill="#e3cfcd"/><text x="750.0" y="488.0" text-anchor="middle" font-family="Helvetica Neue, Arial, sans-serif" font-size="9" fill="#1f2937">4</text><rect x="772.0" y="452.0" width="36.0" height="64.0" rx="6" fill="#e4d1ce"/><text x="790.0" y="488.0" text-anchor="middle" font-family="Helvetica Neue, Arial, sans-serif" font-size="9" fill="#1f2937">4</text><rect x="812.0" y="452.0" width="36.0" height="64.0" rx="6" fill="#dfc8c7"/><text x="830.0" y="488.0" text-anchor="middle" font-family="Helvetica Neue, Arial, sans-serif" font-size="9" fill="#1f2937">6</text><rect x="852.0" y="452.0" width="36.0" height="64.0" rx="6" fill="#dfc7c6"/><text x="870.0" y="488.0" text-anchor="middle" font-family="Helvetica Neue, Arial, sans-serif" font-size="9" fill="#1f2937">6</text><rect x="892.0" y="452.0" width="36.0" height="64.0" rx="6" fill="#e1ccca"/><text x="910.0" y="488.0" text-anchor="middle" font-family="Helvetica Neue, Arial, sans-serif" font-size="9" fill="#1f2937">5</text><rect x="932.0" y="452.0" width="36.0" height="64.0" rx="6" fill="#e3cfcd"/><text x="950.0" y="488.0" text-anchor="middle" font-family="Helvetica Neue, Arial, sans-serif" font-size="9" fill="#1f2937">4</text><rect x="972.0" y="452.0" width="36.0" height="64.0" rx="6" fill="#ddc3c3"/><text x="990.0" y="488.0" text-anchor="middle" font-family="Helvetica Neue, Arial, sans-serif" font-size="9" fill="#1f2937">7</text><rect x="1012.0" y="452.0" width="36.0" height="64.0" rx="6" fill="#dfc7c6"/><text x="1030.0" y="488.0" text-anchor="middle" font-family="Helvetica Neue, Arial, sans-serif" font-size="9" fill="#1f2937">6</text><rect x="1052.0" y="452.0" width="36.0" height="64.0" rx="6" fill="#d5b3b6"/><text x="1070.0" y="488.0" text-anchor="middle" font-family="Helvetica Neue, Arial, sans-serif" font-size="9" fill="#1f2937">13</text><rect x="1092.0" y="452.0" width="36.0" height="64.0" rx="6" fill="#dcc0c1"/><text x="1110.0" y="488.0" text-anchor="middle" font-family="Helvetica Neue, Arial, sans-serif" font-size="9" fill="#1f2937">8</text><rect x="1132.0" y="452.0" width="36.0" height="64.0" rx="6" fill="#dabdbf"/><text x="1150.0" y="488.0" text-anchor="middle" font-family="Helvetica Neue, Arial, sans-serif" font-size="9" fill="#1f2937">9</text><rect x="1172.0" y="452.0" width="36.0" height="64.0" rx="6" fill="#dcc1c2"/><text x="1190.0" y="488.0" text-anchor="middle" font-family="Helvetica Neue, Arial, sans-serif" font-size="9" fill="#1f2937">8</text><text x="196" y="557.0" text-anchor="end" font-family="Helvetica Neue, Arial, sans-serif" font-size="16" fill="#1f2937">TONYBET</text><rect x="212.0" y="520.0" width="36.0" height="64.0" rx="6" fill="#ece2dc"/><text x="230.0" y="556.0" text-anchor="middle" font-family="Helvetica Neue, Arial, sans-serif" font-size="9" fill="#1f2937">1</text><rect x="252.0" y="520.0" width="36.0" height="64.0" rx="6" fill="#ebded9"/><text x="270.0" y="556.0" text-anchor="middle" font-family="Helvetica Neue, Arial, sans-serif" font-size="9" fill="#1f2937">1</text><rect x="292.0" y="520.0" width="36.0" height="64.0" rx="6" fill="#ebdfd9"/><text x="310.0" y="556.0" text-anchor="middle" font-family="Helvetica Neue, Arial, sans-serif" font-size="9" fill="#1f2937">1</text><rect x="332.0" y="520.0" width="36.0" height="64.0" rx="6" fill="#ebdfda"/><text x="350.0" y="556.0" text-anchor="middle" font-family="Helvetica Neue, Arial, sans-serif" font-size="9" fill="#1f2937">1</text><rect x="372.0" y="520.0" width="36.0" height="64.0" rx="6" fill="#e8d8d4"/><text x="390.0" y="556.0" text-anchor="middle" font-family="Helvetica Neue, Arial, sans-serif" font-size="9" fill="#1f2937">2</text><rect x="412.0" y="520.0" width="36.0" height="64.0" rx="6" fill="#e5d3d0"/><text x="430.0" y="556.0" text-anchor="middle" font-family="Helvetica Neue, Arial, sans-serif" font-size="9" fill="#1f2937">3</text><rect x="452.0" y="520.0" width="36.0" height="64.0" rx="6" fill="#e7d7d3"/><text x="470.0" y="556.0" text-anchor="middle" font-family="Helvetica Neue, Arial, sans-serif" font-size="9" fill="#1f2937">2</text><rect x="492.0" y="520.0" width="36.0" height="64.0" rx="6" fill="#eee5df"/><rect x="532.0" y="520.0" width="36.0" height="64.0" rx="6" fill="#eee6df"/><rect x="572.0" y="520.0" width="36.0" height="64.0" rx="6" fill="#ede2dc"/><text x="590.0" y="556.0" text-anchor="middle" font-family="Helvetica Neue, Arial, sans-serif" font-size="9" fill="#1f2937">1</text><rect x="612.0" y="520.0" width="36.0" height="64.0" rx="6" fill="#ece1db"/><text x="630.0" y="556.0" text-anchor="middle" font-family="Helvetica Neue, Arial, sans-serif" font-size="9" fill="#1f2937">1</text><rect x="652.0" y="520.0" width="36.0" height="64.0" rx="6" fill="#ebdfd9"/><text x="670.0" y="556.0" text-anchor="middle" font-family="Helvetica Neue, Arial, sans-serif" font-size="9" fill="#1f2937">1</text><rect x="692.0" y="520.0" width="36.0" height="64.0" rx="6" fill="#eaddd8"/><text x="710.0" y="556.0" text-anchor="middle" font-family="Helvetica Neue, Arial, sans-serif" font-size="9" fill="#1f2937">1</text><rect x="732.0" y="520.0" width="36.0" height="64.0" rx="6" fill="#e3cfcd"/><text x="750.0" y="556.0" text-anchor="middle" font-family="Helvetica Neue, Arial, sans-serif" font-size="9" fill="#1f2937">4</text><rect x="772.0" y="520.0" width="36.0" height="64.0" rx="6" fill="#e7d7d3"/><text x="790.0" y="556.0" text-anchor="middle" font-family="Helvetica Neue, Arial, sans-serif" font-size="9" fill="#1f2937">2</text><rect x="812.0" y="520.0" width="36.0" height="64.0" rx="6" fill="#ddc3c3"/><text x="830.0" y="556.0" text-anchor="middle" font-family="Helvetica Neue, Arial, sans-serif" font-size="9" fill="#1f2937">8</text><rect x="852.0" y="520.0" width="36.0" height="64.0" rx="6" fill="#e4d1ce"/><text x="870.0" y="556.0" text-anchor="middle" font-family="Helvetica Neue, Arial, sans-serif" font-size="9" fill="#1f2937">4</text><rect x="892.0" y="520.0" width="36.0" height="64.0" rx="6" fill="#e3cecc"/><text x="910.0" y="556.0" text-anchor="middle" font-family="Helvetica Neue, Arial, sans-serif" font-size="9" fill="#1f2937">4</text><rect x="932.0" y="520.0" width="36.0" height="64.0" rx="6" fill="#e1cbca"/><text x="950.0" y="556.0" text-anchor="middle" font-family="Helvetica Neue, Arial, sans-serif" font-size="9" fill="#1f2937">5</text><rect x="972.0" y="520.0" width="36.0" height="64.0" rx="6" fill="#e2cccb"/><text x="990.0" y="556.0" text-anchor="middle" font-family="Helvetica Neue, Arial, sans-serif" font-size="9" fill="#1f2937">5</text><rect x="1012.0" y="520.0" width="36.0" height="64.0" rx="6" fill="#e3cfcd"/><text x="1030.0" y="556.0" text-anchor="middle" font-family="Helvetica Neue, Arial, sans-serif" font-size="9" fill="#1f2937">4</text><rect x="1052.0" y="520.0" width="36.0" height="64.0" rx="6" fill="#ebdfd9"/><text x="1070.0" y="556.0" text-anchor="middle" font-family="Helvetica Neue, Arial, sans-serif" font-size="9" fill="#1f2937">1</text><rect x="1092.0" y="520.0" width="36.0" height="64.0" rx="6" fill="#f1eae2"/><rect x="1132.0" y="520.0" width="36.0" height="64.0" rx="6" fill="#e7d6d2"/><text x="1150.0" y="556.0" text-anchor="middle" font-family="Helvetica Neue, Arial, sans-serif" font-size="9" fill="#1f2937">3</text><rect x="1172.0" y="520.0" width="36.0" height="64.0" rx="6" fill="#e6d6d2"/><text x="1190.0" y="556.0" text-anchor="middle" font-family="Helvetica Neue, Arial, sans-serif" font-size="9" fill="#1f2937">3</text><text x="196" y="625.0" text-anchor="end" font-family="Helvetica Neue, Arial, sans-serif" font-size="16" fill="#1f2937">BETSSON</text><rect x="212.0" y="588.0" width="36.0" height="64.0" rx="6" fill="#f1eae2"/><rect x="252.0" y="588.0" width="36.0" height="64.0" rx="6" fill="#eee6df"/><rect x="292.0" y="588.0" width="36.0" height="64.0" rx="6" fill="#eee5de"/><rect x="332.0" y="588.0" width="36.0" height="64.0" rx="6" fill="#eee5de"/><rect x="372.0" y="588.0" width="36.0" height="64.0" rx="6" fill="#ede4dd"/><rect x="412.0" y="588.0" width="36.0" height="64.0" rx="6" fill="#ede3dd"/><rect x="452.0" y="588.0" width="36.0" height="64.0" rx="6" fill="#f1ece4"/><rect x="492.0" y="588.0" width="36.0" height="64.0" rx="6" fill="#f1ece4"/><rect x="532.0" y="588.0" width="36.0" height="64.0" rx="6" fill="#f2ece4"/><rect x="572.0" y="588.0" width="36.0" height="64.0" rx="6" fill="#f0e9e1"/><rect x="612.0" y="588.0" width="36.0" height="64.0" rx="6" fill="#eee5de"/><rect x="652.0" y="588.0" width="36.0" height="64.0" rx="6" fill="#f0eae2"/><rect x="692.0" y="588.0" width="36.0" height="64.0" rx="6" fill="#f1ece4"/><rect x="732.0" y="588.0" width="36.0" height="64.0" rx="6" fill="#f2eee6"/><rect x="772.0" y="588.0" width="36.0" height="64.0" rx="6" fill="#efe7e0"/><rect x="812.0" y="588.0" width="36.0" height="64.0" rx="6" fill="#f1ebe3"/><rect x="852.0" y="588.0" width="36.0" height="64.0" rx="6" fill="#f1ece4"/><rect x="892.0" y="588.0" width="36.0" height="64.0" rx="6" fill="#f1eae3"/><rect x="932.0" y="588.0" width="36.0" height="64.0" rx="6" fill="#f0e9e2"/><rect x="972.0" y="588.0" width="36.0" height="64.0" rx="6" fill="#f1ebe3"/><rect x="1012.0" y="588.0" width="36.0" height="64.0" rx="6" fill="#f2ece4"/><rect x="1052.0" y="588.0" width="36.0" height="64.0" rx="6" fill="#f1ebe3"/><rect x="1092.0" y="588.0" width="36.0" height="64.0" rx="6" fill="#f3efe6"/><rect x="1132.0" y="588.0" width="36.0" height="64.0" rx="6" fill="#dcc1c2"/><text x="1150.0" y="624.0" text-anchor="middle" font-family="Helvetica Neue, Arial, sans-serif" font-size="9" fill="#1f2937">8</text><rect x="1172.0" y="588.0" width="36.0" height="64.0" rx="6" fill="#cca1a8"/><text x="1190.0" y="624.0" text-anchor="middle" font-family="Helvetica Neue, Arial, sans-serif" font-size="9" fill="#1f2937">21</text><text x="196" y="693.0" text-anchor="end" font-family="Helvetica Neue, Arial, sans-serif" font-size="16" fill="#1f2937">APUESTAS ROYAL</text><rect x="212.0" y="656.0" width="36.0" height="64.0" rx="6" fill="#f3eee6"/><rect x="252.0" y="656.0" width="36.0" height="64.0" rx="6" fill="#f3eee6"/><rect x="292.0" y="656.0" width="36.0" height="64.0" rx="6" fill="#f4f0e8"/><rect x="332.0" y="656.0" width="36.0" height="64.0" rx="6" fill="#f2ede5"/><rect x="372.0" y="656.0" width="36.0" height="64.0" rx="6" fill="#f2eee5"/><rect x="412.0" y="656.0" width="36.0" height="64.0" rx="6" fill="#f1ece4"/><rect x="452.0" y="656.0" width="36.0" height="64.0" rx="6" fill="#f0eae2"/><rect x="492.0" y="656.0" width="36.0" height="64.0" rx="6" fill="#eee6df"/><rect x="532.0" y="656.0" width="36.0" height="64.0" rx="6" fill="#eee5df"/><rect x="572.0" y="656.0" width="36.0" height="64.0" rx="6" fill="#ede4de"/><rect x="612.0" y="656.0" width="36.0" height="64.0" rx="6" fill="#ede3dd"/><rect x="652.0" y="656.0" width="36.0" height="64.0" rx="6" fill="#eee6df"/><rect x="692.0" y="656.0" width="36.0" height="64.0" rx="6" fill="#eee6df"/><rect x="732.0" y="656.0" width="36.0" height="64.0" rx="6" fill="#efe8e1"/><rect x="772.0" y="656.0" width="36.0" height="64.0" rx="6" fill="#ede4dd"/><rect x="812.0" y="656.0" width="36.0" height="64.0" rx="6" fill="#eee6df"/><rect x="852.0" y="656.0" width="36.0" height="64.0" rx="6" fill="#efe8e1"/><rect x="892.0" y="656.0" width="36.0" height="64.0" rx="6" fill="#eee5df"/><rect x="932.0" y="656.0" width="36.0" height="64.0" rx="6" fill="#eee4de"/><rect x="972.0" y="656.0" width="36.0" height="64.0" rx="6" fill="#f0e8e1"/><rect x="1012.0" y="656.0" width="36.0" height="64.0" rx="6" fill="#eee5df"/><rect x="1052.0" y="656.0" width="36.0" height="64.0" rx="6" fill="#efe6e0"/><rect x="1092.0" y="656.0" width="36.0" height="64.0" rx="6" fill="#efe7e0"/><rect x="1132.0" y="656.0" width="36.0" height="64.0" rx="6" fill="#efe7e0"/><rect x="1172.0" y="656.0" width="36.0" height="64.0" rx="6" fill="#eee6df"/><text x="196" y="761.0" text-anchor="end" font-family="Helvetica Neue, Arial, sans-serif" font-size="16" fill="#1f2937">JUEGA EN LINEA</text><rect x="212.0" y="724.0" width="36.0" height="64.0" rx="6" fill="#f3eee6"/><rect x="252.0" y="724.0" width="36.0" height="64.0" rx="6" fill="#f3efe6"/><rect x="292.0" y="724.0" width="36.0" height="64.0" rx="6" fill="#f2eee5"/><rect x="332.0" y="724.0" width="36.0" height="64.0" rx="6" fill="#f2eee5"/><rect x="372.0" y="724.0" width="36.0" height="64.0" rx="6" fill="#f3eee6"/><rect x="412.0" y="724.0" width="36.0" height="64.0" rx="6" fill="#f2ede5"/><rect x="452.0" y="724.0" width="36.0" height="64.0" rx="6" fill="#f1ece4"/><rect x="492.0" y="724.0" width="36.0" height="64.0" rx="6" fill="#f2eee5"/><rect x="532.0" y="724.0" width="36.0" height="64.0" rx="6" fill="#f2ede5"/><rect x="572.0" y="724.0" width="36.0" height="64.0" rx="6" fill="#f2ede5"/><rect x="612.0" y="724.0" width="36.0" height="64.0" rx="6" fill="#f2ede5"/><rect x="652.0" y="724.0" width="36.0" height="64.0" rx="6" fill="#f3efe6"/><rect x="692.0" y="724.0" width="36.0" height="64.0" rx="6" fill="#f4f1e8"/><rect x="732.0" y="724.0" width="36.0" height="64.0" rx="6" fill="#f2eee6"/><rect x="772.0" y="724.0" width="36.0" height="64.0" rx="6" fill="#f4f0e7"/><rect x="812.0" y="724.0" width="36.0" height="64.0" rx="6" fill="#f2ede5"/><rect x="852.0" y="724.0" width="36.0" height="64.0" rx="6" fill="#f4f0e7"/><rect x="892.0" y="724.0" width="36.0" height="64.0" rx="6" fill="#f4f1e8"/><rect x="932.0" y="724.0" width="36.0" height="64.0" rx="6" fill="#f3efe6"/><rect x="972.0" y="724.0" width="36.0" height="64.0" rx="6" fill="#f4f1e8"/><rect x="1012.0" y="724.0" width="36.0" height="64.0" rx="6" fill="#f4f1e8"/><rect x="1052.0" y="724.0" width="36.0" height="64.0" rx="6" fill="#f4f1e8"/><rect x="1092.0" y="724.0" width="36.0" height="64.0" rx="6" fill="#f4f1e8"/><rect x="1132.0" y="724.0" width="36.0" height="64.0" rx="6" fill="#f4f1e8"/><rect x="1172.0" y="724.0" width="36.0" height="64.0" rx="6" fill="#f4f1e8"/><rect x="48" y="902" width="44" height="16" rx="6" fill="#f4f1e8"/><text x="70" y="936" text-anchor="middle" font-family="Helvetica Neue, Arial, sans-serif" font-size="11" fill="#64748b">0</text><rect x="138" y="902" width="44" height="16" rx="6" fill="#c99aa2"/><text x="160" y="936" text-anchor="middle" font-family="Helvetica Neue, Arial, sans-serif" font-size="11" fill="#64748b">25</text><rect x="228" y="902" width="44" height="16" rx="6" fill="#b57282"/><text x="250" y="936" text-anchor="middle" font-family="Helvetica Neue, Arial, sans-serif" font-size="11" fill="#64748b">50</text><rect x="318" y="902" width="44" height="16" rx="6" fill="#a55268"/><text x="340" y="936" text-anchor="middle" font-family="Helvetica Neue, Arial, sans-serif" font-size="11" fill="#64748b">76</text><rect x="408" y="902" width="44" height="16" rx="6" fill="#973653"/><text x="430" y="936" text-anchor="middle" font-family="Helvetica Neue, Arial, sans-serif" font-size="11" fill="#64748b">101</text><rect x="498" y="902" width="44" height="16" rx="6" fill="#8b1e3f"/><text x="520" y="936" text-anchor="middle" font-family="Helvetica Neue, Arial, sans-serif" font-size="11" fill="#64748b">126</text></svg>