<svg xmlns="http://www.w3.org/2000/svg" width="1280" height="920" viewBox="0 0 1280 920" role="img" aria-labelledby="title desc"><title id="title">Distribucion estimada de inversion por marca y medio</title><desc id="desc">Barras horizontales stackeadas con la distribucion estimada de inversion por marca y desglose por medio.</desc><rect width="100%" height="100%" fill="#f6f2e9"/><text x="48" y="54" font-family="Helvetica Neue, Arial, sans-serif" font-size="34" font-weight="700" fill="#1f2937">Distribucion estimada de inversion por marca y medio</text><text x="48" y="84" font-family="Helvetica Neue, Arial, sans-serif" font-size="18" fill="#5f6b7a">Composicion por tipo de medio. Montos estimados en CLP segun observacion y tarifas estandar.</text><rect x="48" y="840" width="1184" height="44" rx="14" fill="#fff4dd" stroke="#f59e0b" stroke-width="1.5"/><text x="70" y="868" font-family="Helvetica Neue, Arial, sans-serif" font-size="16" font-weight="700" fill="#92400e">Prevencion:</text><text x="178" y="868" font-family="Helvetica Neue, Arial, sans-serif" font-size="16" fill="#7c2d12">AJUTER describe la ludopatia como una adiccion conductual cronica; no es solo perdida de dinero.</text><text x="48" y="905" font-family="Helvetica Neue, Arial, sans-serif" font-size="14" fill="#5f6b7a">Fuente: Integrametrics, periodo enero-junio 2026 (corte al 21 de junio de 2026)</text><rect x="48" y="98" width="14" height="14" rx="7" fill="#b91c1c"/><text x="72" y="110" font-family="Helvetica Neue, Arial, sans-serif" font-size="16" fill="#334155">TV abierta</text><rect x="178" y="98" width="14" height="14" rx="7" fill="#f97316"/><text x="202" y="110" font-family="Helvetica Neue, Arial, sans-serif" font-size="16" fill="#334155">TV cable</text><rect x="308" y="98" width="14" height="14" rx="7" fill="#0f766e"/><text x="332" y="110" font-family="Helvetica Neue, Arial, sans-serif" font-size="16" fill="#334155">Radio</text><rect x="438" y="98" width="14" height="14" rx="7" fill="#7c3aed"/><text x="462" y="110" font-family="Helvetica Neue, Arial, sans-serif" font-size="16" fill="#334155">Via publica</text><rect x="568" y="98" width="14" height="14" rx="7" fill="#2563eb"/><text x="592" y="110" font-family="Helvetica Neue, Arial, sans-serif" font-size="16" fill="#334155">Digital</text><rect x="698" y="98" width="14" height="14" rx="7" fill="#475569"/><text x="722" y="110" font-family="Helvetica Neue, Arial, sans-serif" font-size="16" fill="#334155">Prensa</text><line x1="200.0" y1="110" x2="200.0" y2="770" stroke="#e8e3d8" stroke-width="1"/><text x="200.0" y="886" text-anchor="middle" font-family="Helvetica Neue, Arial, sans-serif" font-size="14" fill="#64748b">$0</text><line x1="382.0" y1="110" x2="382.0" y2="770" stroke="#e8e3d8" stroke-width="1"/><text x="382.0" y="886" text-anchor="middle" font-family="Helvetica Neue, Arial, sans-serif" font-size="14" fill="#64748b">$376.5 M</text><line x1="564.0" y1="110" x2="564.0" y2="770" stroke="#e8e3d8" stroke-width="1"/><text x="564.0" y="886" text-anchor="middle" font-family="Helvetica Neue, Arial, sans-serif" font-size="14" fill="#64748b">$752.9 M</text><line x1="746.0" y1="110" x2="746.0" y2="770" stroke="#e8e3d8" stroke-width="1"/><text x="746.0" y="886" text-anchor="middle" font-family="Helvetica Neue, Arial, sans-serif" font-size="14" fill="#64748b">$1.1 MM</text><line x1="928.0" y1="110" x2="928.0" y2="770" stroke="#e8e3d8" stroke-width="1"/><text x="928.0" y="886" text-anchor="middle" font-family="Helvetica Neue, Arial, sans-serif" font-size="14" fill="#64748b">$1.5 MM</text><line x1="1110.0" y1="110" x2="1110.0" y2="770" stroke="#e8e3d8" stroke-width="1"/><text x="1110.0" y="886" text-anchor="middle" font-family="Helvetica Neue, Arial, sans-serif" font-size="14" fill="#64748b">$1.9 MM</text><text x="186" y="132" text-anchor="end" font-family="Helvetica Neue, Arial, sans-serif" font-size="16" fill="#1f2937">BETANO</text><rect x="200" y="116" width="672.5765806493954" height="24" rx="4" fill="#b91c1c"/><rect x="872.5765806493954" y="116" width="30.0863254243068" height="24" rx="4" fill="#f97316"/><rect x="902.6629060737022" y="116" width="39.98848048492478" height="24" rx="4" fill="#0f766e"/><rect x="942.651386558627" y="116" width="86.43350026690939" height="24" rx="4" fill="#7c3aed"/><rect x="1029.0848868255364" y="116" width="80.91511317446354" height="24" rx="4" fill="#2563eb"/><text x="1124" y="133" font-family="Helvetica Neue, Arial, sans-serif" font-size="15" fill="#334155">$1.882.368.751</text><text x="186" y="180" text-anchor="end" font-family="Helvetica Neue, Arial, sans-serif" font-size="16" fill="#1f2937">JUGABET</text><rect x="200" y="164" width="74.98776737169999" height="24" rx="4" fill="#b91c1c"/><rect x="274.9877673717" y="164" width="7.923269101767834" height="24" rx="4" fill="#f97316"/><rect x="282.91103647346785" y="164" width="37.66555911867464" height="24" rx="4" fill="#0f766e"/><rect x="320.5765955921425" y="164" width="119.65104873559967" height="24" rx="4" fill="#7c3aed"/><rect x="440.22764432774215" y="164" width="63.502055710600644" height="24" rx="4" fill="#2563eb"/><text x="1124" y="181" font-family="Helvetica Neue, Arial, sans-serif" font-size="15" fill="#334155">$628.276.149</text><text x="186" y="228" text-anchor="end" font-family="Helvetica Neue, Arial, sans-serif" font-size="16" fill="#1f2937">COOLBET</text><rect x="200" y="212" width="26.540109095669873" height="24" rx="4" fill="#b91c1c"/><rect x="226.54010909566986" y="212" width="0.4560541868922791" height="24" rx="4" fill="#f97316"/><rect x="226.99616328256215" y="212" width="9.029682911125304" height="24" rx="4" fill="#0f766e"/><rect x="236.02584619368744" y="212" width="2.995155384997255" height="24" rx="4" fill="#7c3aed"/><rect x="239.0210015786847" y="212" width="253.29676373049807" height="24" rx="4" fill="#2563eb"/><rect x="492.31776530918273" y="212" width="6.196050373284452" height="24" rx="4" fill="#475569"/><text x="1124" y="229" font-family="Helvetica Neue, Arial, sans-serif" font-size="15" fill="#334155">$617.486.899</text><text x="186" y="276" text-anchor="end" font-family="Helvetica Neue, Arial, sans-serif" font-size="16" fill="#1f2937">EPICBET</text><rect x="200" y="260" width="5.162590537453179" height="24" rx="4" fill="#f97316"/><rect x="205.16259053745318" y="260" width="193.49749405269108" height="24" rx="4" fill="#7c3aed"/><rect x="398.66008459014427" y="260" width="0.8546094675985223" height="24" rx="4" fill="#2563eb"/><text x="1124" y="277" font-family="Helvetica Neue, Arial, sans-serif" font-size="15" fill="#334155">$412.703.544</text><text x="186" y="324" text-anchor="end" font-family="Helvetica Neue, Arial, sans-serif" font-size="16" fill="#1f2937">LATAMWIN</text><rect x="200" y="308" width="20.00118355524084" height="24" rx="4" fill="#0f766e"/><rect x="220.00118355524083" y="308" width="65.5463780934558" height="24" rx="4" fill="#2563eb"/><text x="1124" y="325" font-family="Helvetica Neue, Arial, sans-serif" font-size="15" fill="#334155">$176.958.304</text><text x="186" y="372" text-anchor="end" font-family="Helvetica Neue, Arial, sans-serif" font-size="16" fill="#1f2937">ROJABET</text><rect x="200" y="356" width="25.820859241173046" height="24" rx="4" fill="#b91c1c"/><rect x="225.82085924117305" y="356" width="15.94774306041413" height="24" rx="4" fill="#f97316"/><rect x="241.76860230158718" y="356" width="16.526674908722423" height="24" rx="4" fill="#0f766e"/><rect x="258.2952772103096" y="356" width="0.6526118760146514" height="24" rx="4" fill="#2563eb"/><text x="1124" y="373" font-family="Helvetica Neue, Arial, sans-serif" font-size="15" fill="#334155">$121.935.895</text><text x="186" y="420" text-anchor="end" font-family="Helvetica Neue, Arial, sans-serif" font-size="16" fill="#1f2937">TONYBET</text><rect x="200" y="404" width="14.64946225375386" height="24" rx="4" fill="#b91c1c"/><rect x="214.64946225375385" y="404" width="18.74451968669314" height="24" rx="4" fill="#2563eb"/><text x="1124" y="421" font-family="Helvetica Neue, Arial, sans-serif" font-size="15" fill="#334155">$69.076.690</text><text x="186" y="468" text-anchor="end" font-family="Helvetica Neue, Arial, sans-serif" font-size="16" fill="#1f2937">BETSSON</text><rect x="200" y="452" width="12.993414596270867" height="24" rx="4" fill="#b91c1c"/><rect x="212.99341459627087" y="452" width="3.0061244897452433" height="24" rx="4" fill="#f97316"/><rect x="215.9995390860161" y="452" width="1.4019569752827479" height="24" rx="4" fill="#7c3aed"/><rect x="217.40149606129887" y="452" width="1.0347046721043027" height="24" rx="4" fill="#2563eb"/><text x="1124" y="469" font-family="Helvetica Neue, Arial, sans-serif" font-size="15" fill="#334155">$38.135.965</text><text x="186" y="516" text-anchor="end" font-family="Helvetica Neue, Arial, sans-serif" font-size="16" fill="#1f2937">APUESTAS ROYAL</text><rect x="200" y="500" width="5.69172148996535" height="24" rx="4" fill="#f97316"/><text x="1124" y="517" font-family="Helvetica Neue, Arial, sans-serif" font-size="15" fill="#334155">$11.773.537</text><text x="186" y="564" text-anchor="end" font-family="Helvetica Neue, Arial, sans-serif" font-size="16" fill="#1f2937">JUEGA EN LINEA</text><rect x="200" y="548" width="0.01707293535830535" height="24" rx="4" fill="#b91c1c"/><rect x="200.0170729353583" y="548" width="0.33200419938486403" height="24" rx="4" fill="#f97316"/><rect x="200.34907713474317" y="548" width="0.16139437471978937" height="24" rx="4" fill="#2563eb"/><text x="1124" y="565" font-family="Helvetica Neue, Arial, sans-serif" font-size="15" fill="#334155">$1.055.929</text></svg>